<?xml version="1.0" encoding="utf-8"?>
<!-- Generator: Adobe Illustrator 14.0.0, SVG Export Plug-In . SVG Version: 6.00 Build 43363)  -->
<!DOCTYPE svg PUBLIC "-//W3C//DTD SVG 1.1//EN" "http://www.w3.org/Graphics/SVG/1.1/DTD/svg11.dtd">
<svg version="1.1" id="Laag_1" xmlns="http://www.w3.org/2000/svg" xmlns:xlink="http://www.w3.org/1999/xlink" x="0px" y="0px"
	 width="9.463px" height="16.168px" viewBox="0 0 9.463 16.168" enable-background="new 0 0 9.463 16.168" xml:space="preserve">
<path fill-rule="evenodd" clip-rule="evenodd" fill="#333333" d="M9.463,8.144V8.036c0-0.374-0.156-0.714-0.402-0.96L2.709,0.71
	C2.708,0.708,2.706,0.707,2.706,0.706L2.389,0.391C1.862-0.131,1.002-0.131,0.475,0.396L0.397,0.474
	c-0.529,0.527-0.529,1.393,0,1.921l0.315,0.313C0.713,2.71,0.713,2.714,0.715,2.714l2.531,2.525l2.535,2.527
	c0.172,0.177,0.172,0.459,0,0.635L3.247,10.93l-2.531,2.523c-0.002,0.002-0.002,0.006-0.003,0.006l-0.315,0.314
	c-0.529,0.529-0.529,1.395,0,1.922l0.078,0.076c0.527,0.527,1.391,0.527,1.92,0l0.317-0.316l0.001-0.002l3.018-3.02l3.338-3.337
	C9.311,8.849,9.463,8.515,9.463,8.144z"/>
</svg>
